<?xml version="1.0" encoding="UTF-8" ?>
<!DOCTYPE svg PUBLIC "-//W3C//DTD SVG 1.1//EN" "http://www.w3.org/Graphics/SVG/1.1/DTD/svg11.dtd">
<svg width="309pt" height="86pt" viewBox="0 0 309 86" version="1.1" xmlns="http://www.w3.org/2000/svg">
<g id="#ffffffff">
<path fill="#ffffff" opacity="1.00" d=" M 0.00 0.00 L 309.00 0.00 L 309.00 86.00 L 0.00 86.00 L 0.00 0.00 M 28.37 14.98 C 24.82 15.07 21.27 15.09 17.72 14.96 C 17.41 16.26 16.53 17.94 18.07 18.81 C 20.86 19.18 23.68 19.00 26.49 19.02 C 25.02 22.61 23.10 25.98 21.40 29.46 C 20.57 30.67 21.43 32.82 22.98 32.80 C 27.31 33.20 31.66 32.88 36.00 32.95 C 36.00 34.98 36.00 37.01 36.00 39.04 C 29.71 39.20 23.40 38.74 17.13 39.23 C 15.26 39.96 15.89 43.18 17.96 42.92 C 23.96 43.18 29.98 42.90 35.99 43.00 C 36.00 45.62 35.82 48.27 36.21 50.88 C 37.06 52.14 39.29 52.50 40.13 50.98 C 40.54 48.35 40.37 45.67 40.38 43.01 C 45.86 42.84 51.38 43.33 56.84 42.80 C 58.88 42.23 58.11 38.86 56.03 39.14 C 50.81 38.84 45.58 39.15 40.36 39.03 C 40.37 37.00 40.37 34.98 40.37 32.95 C 44.51 32.86 48.67 33.25 52.79 32.73 C 54.38 32.20 54.37 29.90 52.89 29.23 C 48.76 28.71 44.57 29.08 40.41 29.00 C 39.95 26.46 41.50 22.61 38.84 21.10 C 34.62 20.65 36.35 26.43 35.95 29.00 C 32.92 29.00 29.88 29.00 26.85 29.00 C 28.66 25.70 30.40 22.37 32.06 19.00 C 39.06 18.97 46.06 19.03 53.06 19.02 C 54.41 18.91 56.03 19.16 56.96 17.93 C 57.36 16.53 56.47 15.11 54.94 15.16 C 48.00 14.83 41.04 15.15 34.09 15.06 C 34.49 13.60 34.89 12.15 35.30 10.70 C 33.90 10.21 32.53 9.46 31.01 9.49 C 29.73 11.11 29.13 13.10 28.37 14.98 M 70.81 14.95 C 68.63 15.31 65.66 14.15 64.12 16.15 C 63.28 20.11 68.67 18.72 71.00 19.03 C 71.00 20.35 71.00 21.66 71.00 22.98 C 67.69 23.20 63.58 21.98 61.21 25.03 C 64.23 28.20 68.92 26.62 72.76 26.97 C 68.99 30.74 64.47 33.59 60.44 37.05 C 61.28 37.74 62.14 38.38 63.04 38.99 C 64.30 38.55 65.50 37.94 66.70 37.36 C 66.64 40.60 66.39 43.86 66.86 47.08 C 67.01 48.62 68.49 49.77 70.00 49.81 C 73.93 50.10 77.93 50.22 81.84 49.67 C 83.95 49.25 84.39 46.87 84.35 45.06 C 84.37 41.10 84.74 37.06 83.95 33.15 C 81.99 29.96 77.58 31.31 74.49 30.94 C 75.67 29.62 76.86 28.29 78.04 26.96 C 80.38 26.98 82.73 27.07 85.07 26.89 C 86.55 27.10 87.27 25.45 86.96 24.23 C 85.87 22.25 83.22 23.31 81.41 22.89 C 83.63 19.92 86.57 17.05 87.02 13.19 C 86.27 12.33 85.32 11.97 84.20 12.10 C 81.09 15.78 79.38 20.57 75.44 23.55 C 75.39 22.05 75.35 20.54 75.32 19.04 C 76.69 19.01 78.06 18.98 79.42 18.96 C 79.58 17.83 80.17 16.59 79.50 15.51 C 78.21 15.11 76.86 14.98 75.54 14.77 C 75.17 12.73 75.77 9.55 72.91 9.31 C 70.59 10.23 71.15 12.98 70.81 14.95 M 230.78 10.79 C 222.00 12.84 212.94 12.71 204.00 13.20 C 201.99 13.03 201.04 16.30 203.19 16.70 C 207.39 17.30 211.65 16.84 215.88 16.94 C 216.71 18.95 217.53 20.96 218.35 22.98 C 214.58 23.03 210.81 22.98 207.04 22.96 C 205.02 23.03 202.73 22.76 201.07 24.18 C 200.49 26.04 202.38 26.91 203.93 26.88 C 209.06 27.14 214.20 26.86 219.34 26.95 C 219.60 28.96 219.86 30.97 220.11 32.99 C 213.72 33.12 207.33 32.80 200.95 33.09 C 198.31 32.51 198.35 37.41 200.96 36.87 C 207.34 37.15 213.74 36.84 220.14 36.96 C 219.66 39.95 220.30 44.29 217.01 45.85 C 213.85 46.13 210.74 45.30 207.65 44.81 C 207.69 46.08 206.81 47.86 208.39 48.54 C 212.00 50.27 216.48 50.45 220.28 49.24 C 224.64 46.92 223.97 41.13 224.47 36.96 C 229.59 36.80 234.74 37.31 239.84 36.70 C 241.39 35.82 241.37 34.14 239.84 33.26 C 234.73 32.63 229.56 33.15 224.44 33.00 C 224.29 30.98 224.13 28.97 223.97 26.95 C 228.51 26.77 233.12 27.44 237.60 26.57 C 238.04 25.57 238.40 23.37 236.87 23.22 C 232.29 22.65 227.65 23.15 223.04 22.99 C 222.29 20.85 221.52 18.71 220.74 16.57 C 225.33 15.94 230.07 15.85 234.50 14.39 C 235.87 13.95 236.34 12.50 235.83 11.22 C 234.67 9.43 232.45 10.68 230.78 10.79 M 257.25 15.14 C 253.89 15.09 250.50 14.75 247.17 15.24 C 245.63 15.86 245.61 18.15 247.14 18.80 C 249.90 19.20 252.70 19.00 255.49 19.02 C 254.02 22.60 252.10 25.97 250.41 29.45 C 249.56 30.67 250.44 32.82 252.01 32.80 C 256.33 33.19 260.67 32.88 265.00 32.95 C 265.00 34.98 265.00 37.01 265.00 39.04 C 258.69 39.20 252.37 38.74 246.08 39.23 C 244.27 40.06 244.90 43.18 246.99 42.93 C 252.98 43.18 258.99 42.91 264.99 43.00 C 265.01 45.80 265.01 48.59 265.01 51.39 C 266.38 51.51 268.16 52.47 269.15 50.98 C 269.53 48.34 269.37 45.67 269.38 43.01 C 274.87 42.82 280.40 43.37 285.87 42.76 C 287.83 42.40 287.10 38.74 285.03 39.14 C 279.81 38.84 274.59 39.15 269.37 39.04 C 269.37 37.01 269.36 34.98 269.37 32.95 C 273.51 32.87 277.69 33.25 281.82 32.73 C 283.36 32.15 283.35 29.94 281.92 29.23 C 277.77 28.71 273.58 29.08 269.41 29.00 C 269.38 26.67 269.48 24.32 269.09 22.01 C 268.02 20.74 265.98 20.56 265.25 22.27 C 264.84 24.49 264.99 26.76 264.95 29.00 C 261.92 29.00 258.88 29.00 255.85 29.00 C 257.66 25.70 259.40 22.37 261.06 19.00 C 268.70 18.90 276.36 19.19 284.00 18.90 C 286.15 19.20 286.82 15.88 284.77 15.30 C 277.58 14.67 270.32 15.23 263.10 15.05 C 263.49 13.59 263.88 12.12 264.28 10.66 C 262.89 10.18 261.52 9.52 260.04 9.48 C 258.75 11.17 258.03 13.19 257.25 15.14 M 108.55 13.81 C 111.81 15.98 115.02 18.22 118.25 20.45 C 118.99 19.18 120.68 17.94 119.62 16.34 C 117.48 13.65 114.26 11.89 111.00 10.91 C 109.80 11.48 109.27 12.78 108.55 13.81 M 87.71 15.98 C 87.48 26.31 87.74 36.66 87.60 46.99 C 87.73 48.54 87.39 50.30 88.30 51.67 C 89.63 52.35 91.98 51.81 91.88 50.00 C 92.27 38.70 91.75 27.38 92.12 16.08 C 94.28 16.05 96.44 16.02 98.60 16.03 C 97.52 19.84 95.64 23.35 93.79 26.83 C 96.57 31.13 101.53 36.11 98.85 41.60 C 96.78 42.28 94.69 41.38 92.68 40.93 C 91.62 47.16 101.91 47.73 103.48 42.58 C 105.24 36.69 102.40 30.67 98.53 26.31 C 100.37 22.25 103.99 17.53 101.99 12.99 C 98.98 11.29 95.19 12.13 91.87 12.07 C 89.61 11.87 87.42 13.58 87.71 15.98 M 125.21 12.30 C 122.71 12.88 121.85 15.64 122.00 17.92 C 122.02 26.98 121.92 36.04 122.05 45.10 C 121.91 47.36 123.45 49.84 125.90 49.86 C 133.25 50.15 140.63 50.05 147.98 49.92 C 150.09 50.17 150.79 46.95 148.80 46.26 C 141.60 45.50 134.30 46.65 127.11 45.73 C 126.21 44.33 126.41 42.60 126.33 41.02 C 126.38 34.35 126.38 27.67 126.33 20.99 C 126.44 19.41 126.14 17.61 127.17 16.26 C 134.05 15.38 141.02 16.46 147.91 15.76 C 149.71 14.97 149.10 11.89 147.06 12.08 C 139.79 12.04 132.46 11.66 125.21 12.30 M 157.22 14.24 C 154.89 15.57 156.23 19.62 158.97 18.96 C 168.98 18.99 179.00 19.14 189.00 18.89 C 192.13 18.71 191.24 13.15 188.08 14.03 C 177.80 14.10 167.48 13.70 157.22 14.24 M 108.02 24.93 C 110.51 27.10 113.49 28.63 116.23 30.45 C 116.93 29.19 118.59 27.96 117.66 26.38 C 115.50 23.71 112.35 21.73 109.00 20.94 C 107.69 21.71 106.36 23.81 108.02 24.93 M 114.55 34.39 C 112.85 39.44 111.31 44.57 108.63 49.22 C 109.89 50.23 111.86 51.99 113.26 50.19 C 116.27 46.06 117.91 40.99 118.91 36.02 C 119.75 33.55 115.24 31.57 114.55 34.39 M 154.09 42.20 C 151.98 43.66 153.18 47.56 155.91 46.96 C 167.94 47.04 179.98 47.03 192.01 46.97 C 194.78 47.66 196.05 43.67 193.84 42.23 C 190.26 41.74 186.63 42.05 183.02 42.00 C 173.38 42.16 163.71 41.69 154.09 42.20 M 85.01 62.16 C 84.99 67.05 84.99 71.94 85.01 76.84 C 85.50 76.84 86.48 76.86 86.97 76.87 C 87.04 74.35 86.77 71.77 87.34 69.30 C 88.03 67.55 90.24 67.57 91.69 68.28 C 92.20 71.11 91.98 74.01 92.01 76.88 C 92.50 76.87 93.49 76.84 93.98 76.83 C 93.98 73.88 94.22 70.90 93.82 67.97 C 92.74 65.12 89.18 66.10 86.97 66.80 C 86.99 65.24 87.00 63.68 87.01 62.12 C 86.51 62.13 85.51 62.15 85.01 62.16 M 114.99 62.14 C 115.00 63.79 115.02 65.44 115.05 67.09 C 113.55 66.54 111.92 65.41 110.33 66.37 C 105.55 69.04 108.28 79.56 114.38 76.35 C 115.24 76.60 116.10 76.87 116.96 77.13 C 117.02 72.14 117.01 67.14 116.99 62.15 C 116.49 62.14 115.49 62.14 114.99 62.14 M 134.01 62.16 C 133.99 67.05 133.99 71.94 134.01 76.83 C 134.50 76.84 135.48 76.86 135.97 76.87 C 136.04 74.37 135.78 71.82 136.32 69.36 C 136.95 67.56 139.20 67.57 140.67 68.25 C 141.21 71.09 140.98 74.01 141.01 76.89 C 141.51 76.87 142.49 76.84 142.98 76.83 C 142.98 73.86 143.21 70.87 142.82 67.92 C 141.67 65.13 138.18 66.10 135.97 66.80 C 135.99 65.24 136.00 63.68 136.01 62.12 C 135.51 62.13 134.51 62.15 134.01 62.16 M 159.51 62.41 C 157.84 63.52 159.93 65.87 161.27 64.29 C 163.21 63.69 160.44 60.74 159.51 62.41 M 19.78 65.99 C 20.78 69.67 21.68 73.41 23.23 76.91 C 23.58 76.91 24.28 76.92 24.64 76.92 C 25.63 74.68 26.25 72.30 26.97 69.96 C 27.69 72.28 28.31 74.65 29.32 76.87 C 29.66 76.89 30.35 76.95 30.70 76.98 C 32.29 73.42 33.25 69.62 34.19 65.85 C 30.71 66.02 31.28 70.51 30.13 72.89 C 29.07 70.37 29.16 66.73 26.22 65.59 C 25.44 67.98 24.71 70.40 23.97 72.80 C 22.69 70.59 23.31 65.82 19.78 65.99 M 36.13 66.65 C 36.64 70.19 37.87 73.61 39.23 76.91 C 39.58 76.91 40.29 76.91 40.64 76.91 C 41.63 74.66 42.25 72.28 42.97 69.94 C 43.69 72.28 44.32 74.66 45.33 76.90 C 45.67 76.91 46.37 76.94 46.72 76.95 C 48.28 73.42 49.22 69.65 50.21 65.94 C 46.71 65.92 47.27 70.50 46.13 72.88 C 45.04 70.38 45.17 66.71 42.21 65.60 C 41.43 68.01 40.71 70.43 39.96 72.86 C 39.21 70.43 38.46 68.01 37.65 65.60 C 37.27 65.86 36.51 66.38 36.13 66.65 M 51.78 65.99 C 52.78 69.67 53.68 73.42 55.23 76.92 C 55.59 76.92 56.30 76.90 56.66 76.90 C 57.61 74.72 58.21 72.42 58.92 70.16 C 59.70 72.41 60.34 74.71 61.36 76.88 C 61.69 76.90 62.37 76.94 62.71 76.97 C 64.27 73.43 65.21 69.67 66.22 65.95 C 62.69 65.90 63.30 70.55 62.13 72.89 C 61.07 70.36 61.15 66.75 58.22 65.58 C 57.43 67.99 56.70 70.43 55.97 72.86 C 54.74 70.55 55.30 65.86 51.78 65.99 M 77.99 77.03 C 80.56 77.21 81.76 74.72 82.17 72.59 C 80.78 73.16 79.69 74.17 78.66 75.22 C 74.74 75.69 73.86 70.40 76.25 68.17 C 78.45 67.13 80.23 69.59 82.14 70.34 C 81.90 67.69 79.80 65.32 76.94 66.02 C 71.16 66.90 71.80 77.58 77.99 77.03 M 100.99 76.98 C 103.82 77.66 106.03 75.32 106.35 72.68 C 104.89 73.47 103.53 74.44 102.02 75.14 C 100.02 75.55 99.41 73.41 98.56 72.11 C 101.10 72.01 103.64 71.97 106.17 71.85 C 106.07 69.34 105.13 65.93 102.02 65.98 C 95.89 65.54 95.03 76.30 100.99 76.98 M 121.02 66.16 C 121.10 69.32 120.57 72.60 121.42 75.68 C 122.83 77.77 125.62 76.96 127.45 75.95 C 128.21 76.38 128.98 76.78 129.76 77.16 C 130.19 73.51 130.00 69.83 129.98 66.16 C 129.50 66.15 128.53 66.13 128.04 66.12 C 127.95 68.61 128.25 71.19 127.58 73.62 C 126.90 75.38 123.98 75.88 123.20 73.94 C 122.84 71.35 123.01 68.73 122.98 66.12 C 122.49 66.13 121.51 66.15 121.02 66.16 M 147.02 66.16 C 147.11 69.32 146.56 72.59 147.42 75.67 C 148.86 77.82 151.72 76.95 153.55 75.86 C 154.13 76.24 155.29 76.99 155.87 77.36 C 156.05 73.63 156.02 69.89 155.99 66.16 C 155.50 66.15 154.53 66.13 154.04 66.12 C 153.94 68.61 154.25 71.18 153.59 73.61 C 152.93 75.38 149.91 75.91 149.20 73.90 C 148.83 71.32 149.02 68.71 148.98 66.12 C 148.49 66.13 147.51 66.15 147.02 66.16 M 159.01 66.20 C 158.99 69.73 158.99 73.27 159.01 76.80 C 159.50 76.81 160.49 76.82 160.99 76.83 C 161.01 73.27 161.01 69.72 160.99 66.16 C 160.50 66.17 159.50 66.19 159.01 66.20 M 173.98 77.03 C 176.55 77.21 177.79 74.73 178.12 72.57 C 176.79 73.20 175.69 74.17 174.67 75.21 C 169.72 75.94 169.70 67.11 174.63 67.79 C 175.63 68.88 176.77 69.84 178.20 70.31 C 177.83 67.74 175.86 65.33 173.00 66.02 C 167.16 66.81 167.77 77.57 173.98 77.03 M 181.11 65.66 C 180.96 69.38 180.98 73.11 181.01 76.84 C 181.50 76.85 182.47 76.88 182.95 76.90 C 183.09 74.41 182.67 71.79 183.50 69.39 C 184.19 67.64 187.19 67.03 187.79 69.15 C 188.17 71.70 187.98 74.30 188.02 76.87 C 188.51 76.87 189.49 76.86 189.98 76.86 C 189.88 73.69 190.46 70.38 189.56 67.31 C 188.10 65.18 185.24 66.03 183.45 67.21 C 182.86 66.82 181.69 66.05 181.11 65.66 M 68.54 73.49 C 66.91 74.83 69.11 77.07 70.47 75.47 C 72.55 75.09 69.09 71.44 68.54 73.49 M 164.50 73.47 C 162.78 74.49 165.34 77.22 166.46 75.52 C 168.22 74.67 165.41 71.76 164.50 73.47 Z" />
<path fill="#ffffff" opacity="1.00" d=" M 71.48 35.40 C 73.59 34.69 75.88 34.79 78.07 35.01 C 80.30 34.89 79.74 37.57 80.28 38.98 C 77.10 39.01 73.91 39.01 70.73 38.98 C 70.93 37.78 71.18 36.58 71.48 35.40 Z" />
<path fill="#ffffff" opacity="1.00" d=" M 70.73 42.02 C 73.91 41.99 77.10 41.99 80.28 42.02 C 80.08 43.18 79.83 44.32 79.53 45.46 C 77.53 46.46 75.09 46.06 72.93 45.94 C 70.67 46.13 71.26 43.43 70.73 42.02 Z" />
<path fill="#ffffff" opacity="1.00" d=" M 98.51 70.08 C 99.99 67.55 103.30 67.05 104.52 70.11 C 102.52 70.16 100.52 70.15 98.51 70.08 Z" />
<path fill="#ffffff" opacity="1.00" d=" M 111.19 68.16 C 115.76 65.98 116.51 75.49 112.14 75.21 C 109.38 74.20 109.44 70.07 111.19 68.16 Z" />
</g>
<g id="#6495edff">
<path fill="#6495ed" opacity="1.00" d=" M 28.37 14.98 C 29.13 13.10 29.73 11.11 31.01 9.49 C 32.53 9.46 33.90 10.21 35.30 10.70 C 34.89 12.15 34.49 13.60 34.09 15.06 C 41.04 15.15 48.00 14.83 54.94 15.16 C 56.47 15.11 57.36 16.53 56.96 17.93 C 56.03 19.16 54.41 18.91 53.06 19.02 C 46.06 19.03 39.06 18.97 32.06 19.00 C 30.40 22.37 28.66 25.70 26.85 29.00 C 29.88 29.00 32.92 29.00 35.95 29.00 C 36.35 26.43 34.62 20.65 38.84 21.10 C 41.50 22.61 39.95 26.46 40.41 29.00 C 44.57 29.08 48.76 28.71 52.89 29.23 C 54.37 29.90 54.38 32.20 52.79 32.73 C 48.67 33.25 44.51 32.86 40.37 32.95 C 40.37 34.98 40.37 37.00 40.36 39.03 C 45.58 39.15 50.81 38.84 56.03 39.14 C 58.11 38.86 58.88 42.23 56.84 42.80 C 51.38 43.33 45.86 42.84 40.38 43.01 C 40.37 45.67 40.54 48.35 40.13 50.98 C 39.29 52.50 37.06 52.14 36.21 50.88 C 35.82 48.27 36.00 45.62 35.99 43.00 C 29.98 42.90 23.96 43.18 17.96 42.92 C 15.89 43.18 15.26 39.96 17.13 39.23 C 23.40 38.74 29.71 39.20 36.00 39.04 C 36.00 37.01 36.00 34.98 36.00 32.95 C 31.66 32.88 27.31 33.20 22.98 32.80 C 21.43 32.82 20.57 30.67 21.40 29.46 C 23.10 25.98 25.02 22.61 26.49 19.02 C 23.68 19.00 20.86 19.18 18.07 18.81 C 16.53 17.94 17.41 16.26 17.72 14.96 C 21.27 15.09 24.82 15.07 28.37 14.98 Z" />
<path fill="#6495ed" opacity="1.00" d=" M 70.81 14.95 C 71.15 12.98 70.59 10.23 72.91 9.31 C 75.77 9.55 75.17 12.73 75.54 14.77 C 76.86 14.98 78.21 15.11 79.50 15.51 C 80.17 16.59 79.58 17.83 79.42 18.96 C 78.06 18.98 76.69 19.01 75.32 19.04 C 75.35 20.54 75.39 22.05 75.44 23.55 C 79.38 20.57 81.09 15.78 84.20 12.10 C 85.32 11.97 86.27 12.33 87.02 13.19 C 86.57 17.05 83.63 19.92 81.41 22.89 C 83.22 23.31 85.87 22.25 86.96 24.23 C 87.27 25.45 86.55 27.10 85.07 26.89 C 82.73 27.07 80.38 26.98 78.04 26.96 C 76.86 28.29 75.67 29.62 74.49 30.94 C 77.58 31.31 81.99 29.96 83.95 33.15 C 84.74 37.06 84.37 41.10 84.35 45.06 C 84.39 46.87 83.95 49.25 81.84 49.67 C 77.93 50.22 73.93 50.10 70.00 49.81 C 68.49 49.77 67.01 48.62 66.86 47.08 C 66.39 43.86 66.64 40.60 66.70 37.36 C 65.50 37.94 64.30 38.55 63.04 38.99 C 62.14 38.38 61.28 37.74 60.44 37.05 C 64.47 33.59 68.99 30.74 72.76 26.97 C 68.92 26.62 64.23 28.20 61.21 25.03 C 63.58 21.98 67.69 23.20 71.00 22.98 C 71.00 21.66 71.00 20.35 71.00 19.03 C 68.67 18.72 63.28 20.11 64.12 16.15 C 65.66 14.15 68.63 15.31 70.81 14.95 M 71.48 35.40 C 71.18 36.58 70.93 37.78 70.73 38.98 C 73.91 39.01 77.10 39.01 80.28 38.98 C 79.74 37.57 80.30 34.89 78.07 35.01 C 75.88 34.79 73.59 34.69 71.48 35.40 M 70.73 42.02 C 71.26 43.43 70.67 46.13 72.93 45.94 C 75.09 46.06 77.53 46.46 79.53 45.46 C 79.83 44.32 80.08 43.18 80.28 42.02 C 77.10 41.99 73.91 41.99 70.73 42.02 Z" />
<path fill="#6495ed" opacity="1.00" d=" M 230.78 10.79 C 232.45 10.68 234.67 9.43 235.83 11.22 C 236.34 12.50 235.87 13.95 234.50 14.39 C 230.07 15.85 225.33 15.94 220.74 16.57 C 221.52 18.71 222.29 20.85 223.04 22.99 C 227.65 23.15 232.29 22.65 236.87 23.22 C 238.40 23.37 238.04 25.57 237.60 26.57 C 233.12 27.44 228.51 26.77 223.97 26.95 C 224.13 28.97 224.29 30.98 224.44 33.00 C 229.56 33.15 234.73 32.63 239.84 33.26 C 241.37 34.14 241.39 35.82 239.84 36.70 C 234.74 37.31 229.59 36.80 224.47 36.96 C 223.97 41.13 224.64 46.92 220.28 49.24 C 216.48 50.45 212.00 50.27 208.39 48.54 C 206.81 47.86 207.69 46.08 207.65 44.81 C 210.74 45.30 213.85 46.13 217.01 45.85 C 220.30 44.29 219.66 39.95 220.14 36.96 C 213.74 36.84 207.34 37.15 200.96 36.87 C 198.35 37.41 198.31 32.51 200.95 33.09 C 207.33 32.80 213.72 33.12 220.11 32.99 C 219.86 30.97 219.60 28.96 219.34 26.95 C 214.20 26.86 209.06 27.14 203.93 26.88 C 202.38 26.91 200.49 26.04 201.07 24.18 C 202.73 22.76 205.02 23.03 207.04 22.96 C 210.81 22.98 214.58 23.03 218.35 22.98 C 217.53 20.96 216.71 18.95 215.88 16.94 C 211.65 16.84 207.39 17.30 203.19 16.70 C 201.04 16.30 201.99 13.03 204.00 13.20 C 212.94 12.71 222.00 12.84 230.78 10.79 Z" />
<path fill="#6495ed" opacity="1.00" d=" M 257.25 15.14 C 258.03 13.19 258.75 11.17 260.04 9.48 C 261.52 9.52 262.89 10.18 264.28 10.66 C 263.88 12.12 263.49 13.59 263.10 15.05 C 270.32 15.23 277.58 14.67 284.77 15.30 C 286.82 15.88 286.15 19.20 284.00 18.90 C 276.36 19.19 268.70 18.90 261.06 19.00 C 259.40 22.37 257.66 25.70 255.85 29.00 C 258.88 29.00 261.92 29.00 264.95 29.00 C 264.99 26.76 264.84 24.49 265.25 22.27 C 265.98 20.56 268.02 20.74 269.09 22.01 C 269.48 24.32 269.38 26.67 269.41 29.00 C 273.58 29.08 277.77 28.71 281.92 29.23 C 283.35 29.94 283.36 32.15 281.82 32.73 C 277.69 33.25 273.51 32.87 269.37 32.95 C 269.36 34.98 269.37 37.01 269.37 39.04 C 274.59 39.15 279.81 38.84 285.03 39.14 C 287.10 38.74 287.83 42.40 285.87 42.76 C 280.40 43.37 274.87 42.82 269.38 43.01 C 269.37 45.67 269.53 48.34 269.15 50.98 C 268.16 52.47 266.38 51.51 265.01 51.39 C 265.01 48.59 265.01 45.80 264.99 43.00 C 258.99 42.91 252.98 43.18 246.99 42.93 C 244.90 43.18 244.27 40.06 246.08 39.23 C 252.37 38.74 258.69 39.20 265.00 39.04 C 265.00 37.01 265.00 34.98 265.00 32.95 C 260.67 32.88 256.33 33.19 252.01 32.80 C 250.44 32.82 249.56 30.67 250.41 29.45 C 252.10 25.97 254.02 22.60 255.49 19.02 C 252.70 19.00 249.90 19.20 247.14 18.80 C 245.61 18.15 245.63 15.86 247.17 15.24 C 250.50 14.75 253.89 15.09 257.25 15.14 Z" />
<path fill="#6495ed" opacity="1.00" d=" M 108.55 13.81 C 109.27 12.78 109.80 11.48 111.00 10.91 C 114.26 11.89 117.48 13.65 119.62 16.34 C 120.68 17.94 118.99 19.18 118.25 20.45 C 115.02 18.22 111.81 15.98 108.55 13.81 Z" />
<path fill="#6495ed" opacity="1.00" d=" M 87.71 15.98 C 87.42 13.58 89.61 11.87 91.87 12.07 C 95.19 12.13 98.98 11.29 101.99 12.99 C 103.99 17.53 100.37 22.25 98.53 26.31 C 102.40 30.67 105.24 36.69 103.48 42.58 C 101.91 47.73 91.62 47.16 92.68 40.93 C 94.69 41.38 96.78 42.28 98.85 41.60 C 101.53 36.11 96.57 31.13 93.79 26.83 C 95.64 23.35 97.52 19.84 98.60 16.03 C 96.44 16.02 94.28 16.05 92.12 16.08 C 91.75 27.38 92.27 38.70 91.88 50.00 C 91.98 51.81 89.63 52.35 88.30 51.67 C 87.39 50.30 87.73 48.54 87.60 46.99 C 87.74 36.66 87.48 26.31 87.71 15.98 Z" />
<path fill="#6495ed" opacity="1.00" d=" M 125.21 12.30 C 132.46 11.66 139.79 12.04 147.06 12.08 C 149.10 11.89 149.71 14.97 147.91 15.76 C 141.02 16.46 134.05 15.38 127.17 16.26 C 126.14 17.61 126.44 19.41 126.33 20.99 C 126.38 27.67 126.38 34.35 126.33 41.02 C 126.41 42.60 126.21 44.33 127.11 45.73 C 134.30 46.65 141.60 45.50 148.80 46.26 C 150.79 46.95 150.09 50.17 147.98 49.92 C 140.63 50.05 133.25 50.15 125.90 49.86 C 123.45 49.84 121.91 47.36 122.05 45.10 C 121.92 36.04 122.02 26.98 122.00 17.92 C 121.85 15.64 122.71 12.88 125.21 12.30 Z" />
<path fill="#6495ed" opacity="1.00" d=" M 157.22 14.24 C 167.48 13.70 177.80 14.10 188.08 14.03 C 191.24 13.15 192.13 18.71 189.00 18.89 C 179.00 19.14 168.98 18.99 158.97 18.96 C 156.23 19.62 154.89 15.57 157.22 14.24 Z" />
<path fill="#6495ed" opacity="1.00" d=" M 108.02 24.93 C 106.36 23.81 107.69 21.71 109.00 20.94 C 112.35 21.73 115.50 23.71 117.66 26.38 C 118.59 27.96 116.93 29.19 116.23 30.45 C 113.49 28.63 110.51 27.10 108.02 24.93 Z" />
<path fill="#6495ed" opacity="1.00" d=" M 114.55 34.39 C 115.24 31.57 119.75 33.55 118.91 36.02 C 117.91 40.99 116.27 46.06 113.26 50.19 C 111.86 51.99 109.89 50.23 108.63 49.22 C 111.31 44.57 112.85 39.44 114.55 34.39 Z" />
<path fill="#6495ed" opacity="1.00" d=" M 154.09 42.20 C 163.71 41.69 173.38 42.16 183.02 42.00 C 186.63 42.05 190.26 41.74 193.84 42.23 C 196.05 43.67 194.78 47.66 192.01 46.97 C 179.98 47.03 167.94 47.04 155.91 46.96 C 153.18 47.56 151.98 43.66 154.09 42.20 Z" />
</g>
<g id="#06c1f3ff">
<path fill="#06c1f3" opacity="1.00" d=" M 85.01 62.16 C 85.51 62.15 86.51 62.13 87.01 62.12 C 87.00 63.68 86.99 65.24 86.97 66.80 C 89.18 66.10 92.74 65.12 93.82 67.97 C 94.22 70.90 93.98 73.88 93.98 76.83 C 93.49 76.84 92.50 76.87 92.01 76.88 C 91.98 74.01 92.20 71.11 91.69 68.28 C 90.24 67.57 88.03 67.55 87.34 69.30 C 86.77 71.77 87.04 74.35 86.97 76.87 C 86.48 76.86 85.50 76.84 85.01 76.84 C 84.99 71.94 84.99 67.05 85.01 62.16 Z" />
<path fill="#06c1f3" opacity="1.00" d=" M 114.99 62.14 C 115.49 62.14 116.49 62.14 116.99 62.15 C 117.01 67.14 117.02 72.14 116.96 77.13 C 116.10 76.87 115.24 76.60 114.38 76.35 C 108.28 79.56 105.55 69.04 110.33 66.37 C 111.92 65.41 113.55 66.54 115.05 67.09 C 115.02 65.44 115.00 63.79 114.99 62.14 M 111.19 68.16 C 109.44 70.07 109.38 74.20 112.14 75.21 C 116.51 75.49 115.76 65.98 111.19 68.16 Z" />
<path fill="#06c1f3" opacity="1.00" d=" M 134.01 62.16 C 134.51 62.15 135.51 62.13 136.01 62.12 C 136.00 63.68 135.99 65.24 135.97 66.80 C 138.18 66.10 141.67 65.13 142.82 67.92 C 143.21 70.87 142.98 73.86 142.98 76.83 C 142.49 76.84 141.51 76.87 141.01 76.89 C 140.98 74.01 141.21 71.09 140.67 68.25 C 139.20 67.57 136.95 67.56 136.32 69.36 C 135.78 71.82 136.04 74.37 135.97 76.87 C 135.48 76.86 134.50 76.84 134.01 76.83 C 133.99 71.94 133.99 67.05 134.01 62.16 Z" />
<path fill="#06c1f3" opacity="1.00" d=" M 159.51 62.41 C 160.44 60.74 163.21 63.69 161.27 64.29 C 159.93 65.87 157.84 63.52 159.51 62.41 Z" />
<path fill="#06c1f3" opacity="1.00" d=" M 19.78 65.99 C 23.31 65.82 22.69 70.59 23.97 72.80 C 24.71 70.40 25.44 67.98 26.22 65.59 C 29.16 66.73 29.07 70.37 30.13 72.89 C 31.28 70.51 30.71 66.02 34.19 65.85 C 33.25 69.62 32.29 73.42 30.70 76.98 C 30.35 76.95 29.66 76.89 29.32 76.87 C 28.31 74.65 27.69 72.28 26.97 69.96 C 26.25 72.30 25.63 74.68 24.64 76.92 C 24.28 76.92 23.58 76.91 23.23 76.91 C 21.68 73.41 20.78 69.67 19.78 65.99 Z" />
<path fill="#06c1f3" opacity="1.00" d=" M 36.13 66.65 C 36.51 66.38 37.27 65.86 37.65 65.60 C 38.46 68.01 39.21 70.43 39.96 72.86 C 40.71 70.43 41.43 68.01 42.21 65.60 C 45.17 66.71 45.04 70.38 46.13 72.88 C 47.27 70.50 46.71 65.92 50.21 65.94 C 49.22 69.65 48.28 73.42 46.72 76.95 C 46.37 76.94 45.67 76.91 45.33 76.90 C 44.32 74.66 43.69 72.28 42.97 69.94 C 42.25 72.28 41.63 74.66 40.64 76.91 C 40.29 76.91 39.58 76.91 39.23 76.91 C 37.87 73.61 36.64 70.19 36.13 66.65 Z" />
<path fill="#06c1f3" opacity="1.00" d=" M 51.78 65.99 C 55.30 65.86 54.74 70.55 55.97 72.86 C 56.70 70.43 57.43 67.99 58.22 65.58 C 61.15 66.75 61.07 70.36 62.13 72.89 C 63.30 70.55 62.69 65.90 66.22 65.95 C 65.21 69.67 64.27 73.43 62.71 76.97 C 62.37 76.94 61.69 76.90 61.36 76.88 C 60.34 74.71 59.70 72.41 58.92 70.16 C 58.21 72.42 57.61 74.72 56.66 76.90 C 56.30 76.90 55.59 76.92 55.23 76.92 C 53.68 73.42 52.78 69.67 51.78 65.99 Z" />
<path fill="#06c1f3" opacity="1.00" d=" M 77.99 77.03 C 71.80 77.58 71.16 66.90 76.94 66.02 C 79.80 65.32 81.90 67.69 82.14 70.34 C 80.23 69.59 78.45 67.13 76.25 68.17 C 73.86 70.40 74.74 75.69 78.66 75.22 C 79.69 74.17 80.78 73.16 82.17 72.59 C 81.76 74.72 80.56 77.21 77.99 77.03 Z" />
<path fill="#06c1f3" opacity="1.00" d=" M 100.99 76.98 C 95.03 76.30 95.89 65.54 102.02 65.98 C 105.13 65.93 106.07 69.34 106.17 71.85 C 103.64 71.97 101.10 72.01 98.56 72.11 C 99.41 73.41 100.02 75.55 102.02 75.14 C 103.53 74.44 104.89 73.47 106.35 72.68 C 106.03 75.32 103.82 77.66 100.99 76.98 M 98.51 70.08 C 100.52 70.15 102.52 70.16 104.52 70.11 C 103.30 67.05 99.99 67.55 98.51 70.08 Z" />
<path fill="#06c1f3" opacity="1.00" d=" M 121.02 66.16 C 121.51 66.15 122.49 66.13 122.98 66.12 C 123.01 68.73 122.84 71.35 123.20 73.94 C 123.98 75.88 126.90 75.38 127.58 73.62 C 128.25 71.19 127.95 68.61 128.04 66.12 C 128.53 66.13 129.50 66.15 129.98 66.16 C 130.00 69.83 130.19 73.51 129.76 77.16 C 128.98 76.78 128.21 76.38 127.45 75.95 C 125.62 76.96 122.83 77.77 121.42 75.68 C 120.57 72.60 121.10 69.32 121.02 66.16 Z" />
<path fill="#06c1f3" opacity="1.00" d=" M 147.02 66.16 C 147.51 66.15 148.49 66.13 148.98 66.12 C 149.02 68.71 148.83 71.32 149.20 73.90 C 149.91 75.91 152.93 75.38 153.59 73.61 C 154.25 71.18 153.94 68.61 154.04 66.12 C 154.53 66.13 155.50 66.15 155.99 66.16 C 156.02 69.89 156.05 73.63 155.87 77.36 C 155.29 76.99 154.13 76.24 153.55 75.86 C 151.72 76.95 148.86 77.82 147.42 75.67 C 146.56 72.59 147.11 69.32 147.02 66.16 Z" />
<path fill="#06c1f3" opacity="1.00" d=" M 159.01 66.20 C 159.50 66.19 160.50 66.17 160.99 66.16 C 161.01 69.72 161.01 73.27 160.99 76.83 C 160.49 76.82 159.50 76.81 159.01 76.80 C 158.99 73.27 158.99 69.73 159.01 66.20 Z" />
<path fill="#06c1f3" opacity="1.00" d=" M 173.98 77.03 C 167.77 77.57 167.16 66.81 173.00 66.02 C 175.86 65.33 177.83 67.74 178.20 70.31 C 176.77 69.84 175.63 68.88 174.63 67.79 C 169.70 67.11 169.72 75.94 174.67 75.21 C 175.69 74.17 176.79 73.20 178.12 72.57 C 177.79 74.73 176.55 77.21 173.98 77.03 Z" />
<path fill="#06c1f3" opacity="1.00" d=" M 181.11 65.66 C 181.69 66.05 182.86 66.82 183.45 67.21 C 185.24 66.03 188.10 65.18 189.56 67.31 C 190.46 70.38 189.88 73.69 189.98 76.86 C 189.49 76.86 188.51 76.87 188.02 76.87 C 187.98 74.30 188.17 71.70 187.79 69.15 C 187.19 67.03 184.19 67.64 183.50 69.39 C 182.67 71.79 183.09 74.41 182.95 76.90 C 182.47 76.88 181.50 76.85 181.01 76.84 C 180.98 73.11 180.96 69.38 181.11 65.66 Z" />
<path fill="#06c1f3" opacity="1.00" d=" M 68.54 73.49 C 69.09 71.44 72.55 75.09 70.47 75.47 C 69.11 77.07 66.91 74.83 68.54 73.49 Z" />
<path fill="#06c1f3" opacity="1.00" d=" M 164.50 73.47 C 165.41 71.76 168.22 74.67 166.46 75.52 C 165.34 77.22 162.78 74.49 164.50 73.47 Z" />
</g>
</svg>
